<svg viewBox="-134 -16 518 518.66644" xmlns="http://www.w3.org/2000/svg"><path d="m117.0625 116.894531c-10.210938 0-18.496094 8.28125-18.496094 18.496094s8.285156 18.492187 18.496094 18.492187c10.21875 0 18.496094-8.277343 18.496094-18.492187-.011719-10.210937-8.289063-18.480469-18.496094-18.496094zm0 0"></path><path d="m117.042969 378.058594c-3.445313 0-6.242188 2.796875-6.246094 6.25v32.492187c0 3.449219 2.796875 6.246094 6.246094 6.246094 3.453125 0 6.25-2.796875 6.25-6.246094v-32.492187c-.003907-3.453125-2.796875-6.25-6.25-6.25zm0 0"></path><path d="m60.792969 47.421875c-10.214844 0-18.496094 8.285156-18.496094 18.496094 0 10.214843 8.28125 18.496093 18.496094 18.496093 10.210937 0 18.496093-8.28125 18.496093-18.496093-.015624-10.207031-8.289062-18.480469-18.496093-18.496094zm0 0"></path><path d="m49.5625 418.765625c0 37.273437 30.210938 67.484375 67.480469 67.484375 37.273437 0 67.484375-30.210938 67.484375-67.484375v-162h-134.964844zm91.226562-1.964844c0 13.109375-10.632812 23.742188-23.746093 23.742188-13.109375 0-23.742188-10.632813-23.742188-23.742188v-32.492187c0-13.117188 10.632813-23.746094 23.742188-23.746094 13.113281 0 23.746093 10.628906 23.746093 23.746094zm-51.128906-143.789062h54.808594c4.832031 0 8.746094 3.917969 8.746094 8.75s-3.914063 8.746093-8.746094 8.746093h-54.808594c-4.835937 0-8.75-3.914062-8.75-8.746093s3.914063-8.75 8.75-8.75zm0 24.996093h54.808594c4.832031 0 8.746094 3.914063 8.746094 8.746094 0 4.832032-3.914063 8.75-8.746094 8.75h-54.808594c-4.835937 0-8.75-3.917968-8.75-8.75 0-4.832031 3.914063-8.746094 8.75-8.746094zm0 24.992188h54.808594c4.832031 0 8.746094 3.914062 8.746094 8.75 0 4.832031-3.914063 8.746094-8.746094 8.746094h-54.808594c-4.835937 0-8.75-3.914063-8.75-8.746094 0-4.835938 3.914063-8.75 8.75-8.75zm0 0"></path><path d="m117.074219 216.066406c-38.453125-.035156-72.527344-24.765625-84.480469-61.308594-4.058594-1.539062-7.996094-3.382812-11.773438-5.511718v71.5c-.027343 4.96875 1.957032 9.738281 5.5 13.230468 3.539063 3.484376 8.335938 5.398438 13.308594 5.296876h154.871094c4.96875.097656 9.761719-1.816407 13.296875-5.308594 3.535156-3.484375 5.507813-8.253906 5.472656-13.222656v-71.492188c-3.769531 2.128906-7.695312 3.96875-11.734375 5.507812-11.964844 36.523438-46.023437 61.25-84.460937 61.308594zm0 0"></path><path d="m173.339844 47.421875c-10.21875 0-18.496094 8.285156-18.496094 18.496094 0 10.214843 8.277344 18.496093 18.496094 18.496093 10.210937 0 18.488281-8.28125 18.488281-18.496093-.007813-10.207031-8.28125-18.480469-18.488281-18.496094zm0 0"></path><path d="m122.863281 17.941406c-3.308593 2.929688-8.285156 2.929688-11.59375 0-21.816406-19.292968-53.144531-23.425781-79.21875-10.453125-26.066406 12.976563-41.664062 40.464844-39.429687 69.5 2.238281 29.035157 21.859375 53.808594 49.613281 62.636719 2.835937.902344 5.019531 3.183594 5.792969 6.058594 8.441406 31.207031 36.753906 52.878906 69.078125 52.878906 32.332031 0 60.644531-21.671875 69.082031-52.878906.804688-2.882813 3.011719-5.160156 5.867188-6.054688 29.746093-9.367187 49.972656-36.957031 49.957031-68.144531-.097657-28.144531-16.652344-53.632813-42.324219-65.167969-25.671875-11.539062-55.71875-6.988281-76.824219 11.625zm-62.070312 83.976563c-19.878907 0-35.992188-16.113281-35.992188-35.984375 0-19.878906 16.109375-35.992188 35.988281-36 19.878907 0 35.992188 16.109375 35.996094 35.988281-.023437 19.867187-16.125 35.972656-35.992187 35.996094zm56.269531 69.46875c-19.875 0-35.992188-16.113281-35.992188-35.984375 0-19.878906 16.117188-35.992188 35.992188-35.992188 19.878906 0 35.992188 16.113282 35.992188 35.992188-.023438 19.863281-16.125 35.964844-35.992188 35.992187zm56.277344-69.46875c-19.878906 0-35.992188-16.113281-35.992188-35.984375 0-19.878906 16.109375-35.992188 35.984375-36 19.878907 0 35.992188 16.109375 35.992188 35.988281-.019531 19.867187-16.117188 35.972656-35.984375 35.996094zm0 0"></path></svg>