<!-- icon666.com - MILLIONS vector ICONS FREE --><svg version="1.1" id="Layer_1" xmlns="http://www.w3.org/2000/svg" xmlns:xlink="http://www.w3.org/1999/xlink" x="0px" y="0px" viewBox="0 0 512 512" style="enable-background:new 0 0 512 512;" xml:space="preserve"><g><g><path d="M256,0C159.512,0,81.013,78.499,81.013,174.987v174.987c0,30.436,14.537,59.511,38.886,77.772l38.886,29.165V512h38.886 v-25.924c17.172,12.879,37.751,19.317,58.329,19.317c20.579,0,41.157-6.44,58.329-19.317V512h38.886v-55.089l38.886-29.165 c24.349-18.261,38.886-47.336,38.886-77.772V174.987C430.987,78.499,352.488,0,256,0z M299.795,362.937h-87.588l-19.443-19.443 l32.405-32.405h61.666l32.405,32.405L299.795,362.937z M392.101,270.63l-45.367,45.367l-32.405-32.405 c-7.344-7.346-17.11-11.39-27.496-11.39h-61.664c-10.386,0-20.152,4.045-27.496,11.39l-32.405,32.405L119.9,270.63v-95.643 C119.899,99.941,180.954,38.886,256,38.886s136.101,61.055,136.101,136.101V270.63z"></path></g></g></svg>